%TF.GenerationSoftware,KiCad,Pcbnew,10.0.3*%
%TF.CreationDate,2026-05-18T20:56:14+08:00*%
%TF.ProjectId,kanji,6b616e6a-692e-46b6-9963-61645f706362,rev?*%
%TF.SameCoordinates,Original*%
%TF.FileFunction,Legend,Top*%
%TF.FilePolarity,Positive*%
%FSLAX46Y46*%
G04 Gerber Fmt 4.6, Leading zero omitted, Abs format (unit mm)*
G04 Created by KiCad (PCBNEW 10.0.3) date 2026-05-18 20:56:14*
%MOMM*%
%LPD*%
G01*
G04 APERTURE LIST*
G04 Aperture macros list*
%AMRoundRect*
0 Rectangle with rounded corners*
0 $1 Rounding radius*
0 $2 $3 $4 $5 $6 $7 $8 $9 X,Y pos of 4 corners*
0 Add a 4 corners polygon primitive as box body*
4,1,4,$2,$3,$4,$5,$6,$7,$8,$9,$2,$3,0*
0 Add four circle primitives for the rounded corners*
1,1,$1+$1,$2,$3*
1,1,$1+$1,$4,$5*
1,1,$1+$1,$6,$7*
1,1,$1+$1,$8,$9*
0 Add four rect primitives between the rounded corners*
20,1,$1+$1,$2,$3,$4,$5,0*
20,1,$1+$1,$4,$5,$6,$7,0*
20,1,$1+$1,$6,$7,$8,$9,0*
20,1,$1+$1,$8,$9,$2,$3,0*%
G04 Aperture macros list end*
%ADD10C,0.106680*%
%ADD11C,0.150000*%
%ADD12C,0.120000*%
%ADD13C,0.250000*%
%ADD14C,0.060000*%
%ADD15C,0.100000*%
%ADD16C,0.127000*%
%ADD17C,0.504000*%
%ADD18RoundRect,0.244000X-0.244000X-0.269000X0.244000X-0.269000X0.244000X0.269000X-0.244000X0.269000X0*%
%ADD19RoundRect,0.244000X0.244000X0.269000X-0.244000X0.269000X-0.244000X-0.269000X0.244000X-0.269000X0*%
%ADD20RoundRect,0.219000X0.219000X0.294000X-0.219000X0.294000X-0.219000X-0.294000X0.219000X-0.294000X0*%
%ADD21RoundRect,0.225000X-0.375000X0.225000X-0.375000X-0.225000X0.375000X-0.225000X0.375000X0.225000X0*%
%ADD22C,1.296000*%
%ADD23R,4.000000X5.000000*%
%ADD24C,0.800000*%
%ADD25C,6.400000*%
%ADD26RoundRect,0.525400X-0.525400X0.900400X-0.525400X-0.900400X0.525400X-0.900400X0.525400X0.900400X0*%
%ADD27C,1.700000*%
%ADD28RoundRect,0.275000X0.275000X-0.975000X0.275000X0.975000X-0.275000X0.975000X-0.275000X-0.975000X0*%
%ADD29RoundRect,0.625000X-0.625000X0.750000X-0.625000X-0.750000X0.625000X-0.750000X0.625000X0.750000X0*%
%ADD30RoundRect,0.219000X0.294000X-0.219000X0.294000X0.219000X-0.294000X0.219000X-0.294000X-0.219000X0*%
%ADD31RoundRect,0.219000X-0.219000X-0.294000X0.219000X-0.294000X0.219000X0.294000X-0.219000X0.294000X0*%
%ADD32R,0.300000X0.500000*%
%ADD33R,1.500000X0.300000*%
%ADD34R,3.000000X2.000000*%
%ADD35RoundRect,0.225000X0.375000X-0.225000X0.375000X0.225000X-0.375000X0.225000X-0.375000X-0.225000X0*%
%ADD36RoundRect,0.150000X0.150000X-0.590000X0.150000X0.590000X-0.150000X0.590000X-0.150000X-0.590000X0*%
%ADD37RoundRect,0.219000X-0.294000X0.219000X-0.294000X-0.219000X0.294000X-0.219000X0.294000X0.219000X0*%
%ADD38RoundRect,0.244000X-0.269000X0.244000X-0.269000X-0.244000X0.269000X-0.244000X0.269000X0.244000X0*%
G04 APERTURE END LIST*
D10*
X204865705Y-101600557D02*
X205499012Y-101600557D01*
X205499012Y-101600557D02*
X205573518Y-101563304D01*
X205573518Y-101563304D02*
X205610772Y-101526050D01*
X205610772Y-101526050D02*
X205648025Y-101451544D01*
X205648025Y-101451544D02*
X205648025Y-101302530D01*
X205648025Y-101302530D02*
X205610772Y-101228024D01*
X205610772Y-101228024D02*
X205573518Y-101190770D01*
X205573518Y-101190770D02*
X205499012Y-101153517D01*
X205499012Y-101153517D02*
X204865705Y-101153517D01*
X205126478Y-100445704D02*
X205648025Y-100445704D01*
X204828452Y-100631971D02*
X205387252Y-100818237D01*
X205387252Y-100818237D02*
X205387252Y-100333944D01*
D11*
X115949009Y-96178570D02*
X115949009Y-95845237D01*
X116472819Y-95702380D02*
X116472819Y-96178570D01*
X116472819Y-96178570D02*
X115472819Y-96178570D01*
X115472819Y-96178570D02*
X115472819Y-95702380D01*
X116091866Y-95273808D02*
X116091866Y-94511904D01*
X116472819Y-94035713D02*
X115472819Y-94035713D01*
X115806152Y-93559523D02*
X116472819Y-93559523D01*
X115901390Y-93559523D02*
X115853771Y-93511904D01*
X115853771Y-93511904D02*
X115806152Y-93416666D01*
X115806152Y-93416666D02*
X115806152Y-93273809D01*
X115806152Y-93273809D02*
X115853771Y-93178571D01*
X115853771Y-93178571D02*
X115949009Y-93130952D01*
X115949009Y-93130952D02*
X116472819Y-93130952D01*
X116472819Y-92654761D02*
X115472819Y-92654761D01*
X116091866Y-92559523D02*
X116472819Y-92273809D01*
X115806152Y-92273809D02*
X116187104Y-92654761D01*
%TO.C,D3*%
D12*
X108150000Y-77440000D02*
X108150000Y-81450000D01*
X110150000Y-77440000D02*
X108150000Y-77440000D01*
X110150000Y-77440000D02*
X110150000Y-81450000D01*
%TO.C,L1*%
D13*
X108750000Y-65550000D02*
X108750000Y-68070000D01*
X108750000Y-65550000D02*
X119250000Y-65550000D01*
X108750000Y-73530000D02*
X108750000Y-76050000D01*
X109010000Y-76050000D02*
X108750000Y-76050000D01*
X119250000Y-65550000D02*
X119250000Y-68070000D01*
X119250000Y-73530000D02*
X119250000Y-76050000D01*
X119250000Y-76050000D02*
X109010000Y-76050000D01*
D14*
X108780000Y-76050000D02*
G75*
G02*
X108720000Y-76050000I-30000J0D01*
G01*
X108720000Y-76050000D02*
G75*
G02*
X108780000Y-76050000I30000J0D01*
G01*
%TO.C,U4*%
D15*
X183580000Y-94945000D02*
X183580000Y-108915000D01*
X185485000Y-93040000D02*
X202630000Y-93040000D01*
X185485000Y-110820000D02*
X202630000Y-110820000D01*
D16*
X204535000Y-97435000D02*
X205545272Y-97438728D01*
D15*
X204535000Y-108915000D02*
X204535000Y-94945000D01*
D16*
X205545000Y-106434000D02*
X204535000Y-106434000D01*
X206045000Y-97938728D02*
X206045000Y-105934000D01*
D15*
X183580000Y-94945000D02*
G75*
G02*
X185485000Y-93040000I1905000J0D01*
G01*
X185485000Y-110820000D02*
G75*
G02*
X183580000Y-108915000I0J1905000D01*
G01*
X202634000Y-93040000D02*
G75*
G02*
X204539000Y-94945000I-1J-1905001D01*
G01*
X204535000Y-108915000D02*
G75*
G02*
X202630000Y-110820000I-1905000J0D01*
G01*
D16*
X205545272Y-97438728D02*
G75*
G02*
X206045002Y-97938728I-292J-500022D01*
G01*
X206045000Y-105934000D02*
G75*
G02*
X205545000Y-106434000I-500000J0D01*
G01*
D17*
X203648000Y-94047000D02*
G75*
G02*
X203144000Y-94047000I-252000J0D01*
G01*
X203144000Y-94047000D02*
G75*
G02*
X203648000Y-94047000I252000J0D01*
G01*
X204371000Y-92830000D02*
G75*
G02*
X203867000Y-92830000I-252000J0D01*
G01*
X203867000Y-92830000D02*
G75*
G02*
X204371000Y-92830000I252000J0D01*
G01*
%TO.C,U3*%
D12*
X176990000Y-99907500D02*
X176990000Y-101407500D01*
X178710000Y-99907500D02*
X178710000Y-101407500D01*
X178450000Y-99457500D02*
X178450000Y-99177500D01*
X178730000Y-99457500D01*
X178450000Y-99457500D01*
G36*
X178730000Y-99457500D02*
G01*
X178450000Y-99457500D01*
X178450000Y-99177500D01*
X178730000Y-99457500D01*
G37*
%TO.C,J3*%
D13*
X117080000Y-85360000D02*
X121880000Y-85360000D01*
X117080000Y-103050000D02*
X117080000Y-85450000D01*
X121880000Y-85360000D02*
X121880000Y-88050000D01*
X121880000Y-100450000D02*
X121880000Y-103050000D01*
X121880000Y-103050000D02*
X117080000Y-103050000D01*
X122760000Y-100850000D02*
G75*
G02*
X122200000Y-100850000I-280000J0D01*
G01*
X122200000Y-100850000D02*
G75*
G02*
X122760000Y-100850000I280000J0D01*
G01*
D14*
X122680000Y-102850000D02*
G75*
G02*
X122620000Y-102850000I-30000J0D01*
G01*
X122620000Y-102850000D02*
G75*
G02*
X122680000Y-102850000I30000J0D01*
G01*
%TO.C,D4*%
D12*
X105700000Y-82160000D02*
X105700000Y-78150000D01*
X105700000Y-82160000D02*
X107700000Y-82160000D01*
X107700000Y-82160000D02*
X107700000Y-78150000D01*
%TO.C,Q1*%
D11*
X116080000Y-80225000D02*
X116080000Y-79575000D01*
X116080000Y-80225000D02*
X116080000Y-80875000D01*
X119200000Y-80225000D02*
X119200000Y-79575000D01*
X119200000Y-80225000D02*
X119200000Y-80875000D01*
D12*
X116130000Y-81387500D02*
X115800000Y-81627500D01*
X115800000Y-81147500D01*
X116130000Y-81387500D01*
G36*
X116130000Y-81387500D02*
G01*
X115800000Y-81627500D01*
X115800000Y-81147500D01*
X116130000Y-81387500D01*
G37*
%TO.C,D2*%
X112000000Y-82110000D02*
X112000000Y-78100000D01*
X112000000Y-82110000D02*
X114000000Y-82110000D01*
X114000000Y-82110000D02*
X114000000Y-78100000D01*
%TD*%
%LPC*%
D18*
%TO.C,C16*%
X177470000Y-103107500D03*
X179030000Y-103107500D03*
%TD*%
D19*
%TO.C,C9*%
X127780000Y-90050000D03*
X126220000Y-90050000D03*
%TD*%
%TO.C,C13*%
X127780000Y-85250000D03*
X126220000Y-85250000D03*
%TD*%
D20*
%TO.C,R7*%
X178940000Y-97407500D03*
X177300000Y-97407500D03*
%TD*%
D21*
%TO.C,D3*%
X109150000Y-78150000D03*
X109150000Y-81450000D03*
%TD*%
D22*
%TO.C,H5*%
X108850000Y-121320000D03*
%TD*%
D19*
%TO.C,C8*%
X127780000Y-91250000D03*
X126220000Y-91250000D03*
%TD*%
D23*
%TO.C,L1*%
X109100000Y-70800000D03*
X118900000Y-70800000D03*
%TD*%
D19*
%TO.C,C11*%
X127780000Y-87650000D03*
X126220000Y-87650000D03*
%TD*%
D24*
%TO.C,H3*%
X100950000Y-121320000D03*
X101652944Y-119622944D03*
X101652944Y-123017056D03*
X103350000Y-118920000D03*
D25*
X103350000Y-121320000D03*
D24*
X103350000Y-123720000D03*
X105047056Y-119622944D03*
X105047056Y-123017056D03*
X105750000Y-121320000D03*
%TD*%
%TO.C,H4*%
X198280000Y-121320000D03*
X198982944Y-119622944D03*
X198982944Y-123017056D03*
X200680000Y-118920000D03*
D25*
X200680000Y-121320000D03*
D24*
X200680000Y-123720000D03*
X202377056Y-119622944D03*
X202377056Y-123017056D03*
X203080000Y-121320000D03*
%TD*%
D26*
%TO.C,U4*%
X201618000Y-93875000D03*
X199078000Y-93875000D03*
X196538000Y-93875000D03*
X193998000Y-93875000D03*
X191458000Y-93875000D03*
X188918000Y-93875000D03*
X186378000Y-93875000D03*
X186378000Y-110040000D03*
X188918000Y-110040000D03*
X191458000Y-110040000D03*
X193998000Y-110040000D03*
X196538000Y-110040000D03*
X199078000Y-110040000D03*
X201618000Y-110040000D03*
D27*
X202630000Y-100660000D03*
X202630000Y-103200000D03*
X200090000Y-100660000D03*
X200090000Y-103200000D03*
X197550000Y-100660000D03*
X197550000Y-103200000D03*
X195010000Y-100660000D03*
X195010000Y-103200000D03*
D28*
X194380000Y-97485000D03*
X196285000Y-97485000D03*
D29*
X191998000Y-103050000D03*
%TD*%
D30*
%TO.C,R5*%
X120100000Y-81670000D03*
X120100000Y-80030000D03*
%TD*%
D31*
%TO.C,R8*%
X179930000Y-97407500D03*
X181570000Y-97407500D03*
%TD*%
D19*
%TO.C,C12*%
X127780000Y-86450000D03*
X126220000Y-86450000D03*
%TD*%
D32*
%TO.C,U3*%
X178250000Y-99957500D03*
X177450000Y-99957500D03*
X177450000Y-101357500D03*
X178250000Y-101357500D03*
%TD*%
D33*
%TO.C,J3*%
X122280000Y-100000000D03*
X122280000Y-99500000D03*
X122280000Y-99000000D03*
X122280000Y-98500000D03*
X122280000Y-98000000D03*
X122280000Y-97500000D03*
X122280000Y-97000000D03*
X122280000Y-96500000D03*
X122280000Y-96000000D03*
X122280000Y-95500000D03*
X122280000Y-95000000D03*
X122280000Y-94500000D03*
X122280000Y-94000000D03*
X122280000Y-93500000D03*
X122280000Y-93000000D03*
X122280000Y-92500000D03*
X122280000Y-92000000D03*
X122280000Y-91500000D03*
X122280000Y-91000000D03*
X122280000Y-90490000D03*
X122280000Y-89990000D03*
X122280000Y-89490000D03*
X122280000Y-88990000D03*
X122280000Y-88490000D03*
D34*
X120020000Y-86850000D03*
X120020000Y-101650000D03*
%TD*%
D35*
%TO.C,D4*%
X106700000Y-81450000D03*
X106700000Y-78150000D03*
%TD*%
D19*
%TO.C,C7*%
X127780000Y-92450000D03*
X126220000Y-92450000D03*
%TD*%
D36*
%TO.C,Q1*%
X116690000Y-81165000D03*
X118590000Y-81165000D03*
X117640000Y-79285000D03*
%TD*%
D19*
%TO.C,C6*%
X127780000Y-98050000D03*
X126220000Y-98050000D03*
%TD*%
D37*
%TO.C,R6*%
X115100000Y-79980000D03*
X115100000Y-81620000D03*
%TD*%
D19*
%TO.C,C10*%
X127780000Y-88850000D03*
X126220000Y-88850000D03*
%TD*%
D38*
%TO.C,C14*%
X111100000Y-78040000D03*
X111100000Y-79600000D03*
%TD*%
D24*
%TO.C,H1*%
X100950000Y-66950000D03*
X101652944Y-65252944D03*
X101652944Y-68647056D03*
X103350000Y-64550000D03*
D25*
X103350000Y-66950000D03*
D24*
X103350000Y-69350000D03*
X105047056Y-65252944D03*
X105047056Y-68647056D03*
X105750000Y-66950000D03*
%TD*%
D22*
%TO.C,H7*%
X195180000Y-121320000D03*
%TD*%
D18*
%TO.C,C15*%
X106090000Y-74750000D03*
X107650000Y-74750000D03*
%TD*%
D24*
%TO.C,H2*%
X198280000Y-66950000D03*
X198982944Y-65252944D03*
X198982944Y-68647056D03*
X200680000Y-64550000D03*
D25*
X200680000Y-66950000D03*
D24*
X200680000Y-69350000D03*
X202377056Y-65252944D03*
X202377056Y-68647056D03*
X203080000Y-66950000D03*
%TD*%
D35*
%TO.C,D2*%
X113000000Y-81400000D03*
X113000000Y-78100000D03*
%TD*%
D22*
%TO.C,H6*%
X195180000Y-66950000D03*
%TD*%
%LPD*%
M02*
