%TF.GenerationSoftware,KiCad,Pcbnew,10.0.3*%
%TF.CreationDate,2026-05-18T20:56:14+08:00*%
%TF.ProjectId,kanji,6b616e6a-692e-46b6-9963-61645f706362,rev?*%
%TF.SameCoordinates,Original*%
%TF.FileFunction,Soldermask,Top*%
%TF.FilePolarity,Negative*%
%FSLAX46Y46*%
G04 Gerber Fmt 4.6, Leading zero omitted, Abs format (unit mm)*
G04 Created by KiCad (PCBNEW 10.0.3) date 2026-05-18 20:56:14*
%MOMM*%
%LPD*%
G01*
G04 APERTURE LIST*
G04 Aperture macros list*
%AMRoundRect*
0 Rectangle with rounded corners*
0 $1 Rounding radius*
0 $2 $3 $4 $5 $6 $7 $8 $9 X,Y pos of 4 corners*
0 Add a 4 corners polygon primitive as box body*
4,1,4,$2,$3,$4,$5,$6,$7,$8,$9,$2,$3,0*
0 Add four circle primitives for the rounded corners*
1,1,$1+$1,$2,$3*
1,1,$1+$1,$4,$5*
1,1,$1+$1,$6,$7*
1,1,$1+$1,$8,$9*
0 Add four rect primitives between the rounded corners*
20,1,$1+$1,$2,$3,$4,$5,0*
20,1,$1+$1,$4,$5,$6,$7,0*
20,1,$1+$1,$6,$7,$8,$9,0*
20,1,$1+$1,$8,$9,$2,$3,0*%
G04 Aperture macros list end*
%ADD10RoundRect,0.244000X-0.244000X-0.269000X0.244000X-0.269000X0.244000X0.269000X-0.244000X0.269000X0*%
%ADD11RoundRect,0.244000X0.244000X0.269000X-0.244000X0.269000X-0.244000X-0.269000X0.244000X-0.269000X0*%
%ADD12RoundRect,0.219000X0.219000X0.294000X-0.219000X0.294000X-0.219000X-0.294000X0.219000X-0.294000X0*%
%ADD13RoundRect,0.225000X-0.375000X0.225000X-0.375000X-0.225000X0.375000X-0.225000X0.375000X0.225000X0*%
%ADD14C,1.296000*%
%ADD15R,4.000000X5.000000*%
%ADD16C,0.800000*%
%ADD17C,6.400000*%
%ADD18RoundRect,0.525400X-0.525400X0.900400X-0.525400X-0.900400X0.525400X-0.900400X0.525400X0.900400X0*%
%ADD19C,1.700000*%
%ADD20RoundRect,0.275000X0.275000X-0.975000X0.275000X0.975000X-0.275000X0.975000X-0.275000X-0.975000X0*%
%ADD21RoundRect,0.625000X-0.625000X0.750000X-0.625000X-0.750000X0.625000X-0.750000X0.625000X0.750000X0*%
%ADD22RoundRect,0.219000X0.294000X-0.219000X0.294000X0.219000X-0.294000X0.219000X-0.294000X-0.219000X0*%
%ADD23RoundRect,0.219000X-0.219000X-0.294000X0.219000X-0.294000X0.219000X0.294000X-0.219000X0.294000X0*%
%ADD24R,0.300000X0.500000*%
%ADD25R,1.500000X0.300000*%
%ADD26R,3.000000X2.000000*%
%ADD27RoundRect,0.225000X0.375000X-0.225000X0.375000X0.225000X-0.375000X0.225000X-0.375000X-0.225000X0*%
%ADD28RoundRect,0.150000X0.150000X-0.590000X0.150000X0.590000X-0.150000X0.590000X-0.150000X-0.590000X0*%
%ADD29RoundRect,0.219000X-0.294000X0.219000X-0.294000X-0.219000X0.294000X-0.219000X0.294000X0.219000X0*%
%ADD30RoundRect,0.244000X-0.269000X0.244000X-0.269000X-0.244000X0.269000X-0.244000X0.269000X0.244000X0*%
G04 APERTURE END LIST*
D10*
%TO.C,C16*%
X177470000Y-103107500D03*
X179030000Y-103107500D03*
%TD*%
D11*
%TO.C,C9*%
X127780000Y-90050000D03*
X126220000Y-90050000D03*
%TD*%
%TO.C,C13*%
X127780000Y-85250000D03*
X126220000Y-85250000D03*
%TD*%
D12*
%TO.C,R7*%
X178940000Y-97407500D03*
X177300000Y-97407500D03*
%TD*%
D13*
%TO.C,D3*%
X109150000Y-78150000D03*
X109150000Y-81450000D03*
%TD*%
D14*
%TO.C,H5*%
X108850000Y-121320000D03*
%TD*%
D11*
%TO.C,C8*%
X127780000Y-91250000D03*
X126220000Y-91250000D03*
%TD*%
D15*
%TO.C,L1*%
X109100000Y-70800000D03*
X118900000Y-70800000D03*
%TD*%
D11*
%TO.C,C11*%
X127780000Y-87650000D03*
X126220000Y-87650000D03*
%TD*%
D16*
%TO.C,H3*%
X100950000Y-121320000D03*
X101652944Y-119622944D03*
X101652944Y-123017056D03*
X103350000Y-118920000D03*
D17*
X103350000Y-121320000D03*
D16*
X103350000Y-123720000D03*
X105047056Y-119622944D03*
X105047056Y-123017056D03*
X105750000Y-121320000D03*
%TD*%
%TO.C,H4*%
X198280000Y-121320000D03*
X198982944Y-119622944D03*
X198982944Y-123017056D03*
X200680000Y-118920000D03*
D17*
X200680000Y-121320000D03*
D16*
X200680000Y-123720000D03*
X202377056Y-119622944D03*
X202377056Y-123017056D03*
X203080000Y-121320000D03*
%TD*%
D18*
%TO.C,U4*%
X201618000Y-93875000D03*
X199078000Y-93875000D03*
X196538000Y-93875000D03*
X193998000Y-93875000D03*
X191458000Y-93875000D03*
X188918000Y-93875000D03*
X186378000Y-93875000D03*
X186378000Y-110040000D03*
X188918000Y-110040000D03*
X191458000Y-110040000D03*
X193998000Y-110040000D03*
X196538000Y-110040000D03*
X199078000Y-110040000D03*
X201618000Y-110040000D03*
D19*
X202630000Y-100660000D03*
X202630000Y-103200000D03*
X200090000Y-100660000D03*
X200090000Y-103200000D03*
X197550000Y-100660000D03*
X197550000Y-103200000D03*
X195010000Y-100660000D03*
X195010000Y-103200000D03*
D20*
X194380000Y-97485000D03*
X196285000Y-97485000D03*
D21*
X191998000Y-103050000D03*
%TD*%
D22*
%TO.C,R5*%
X120100000Y-81670000D03*
X120100000Y-80030000D03*
%TD*%
D23*
%TO.C,R8*%
X179930000Y-97407500D03*
X181570000Y-97407500D03*
%TD*%
D11*
%TO.C,C12*%
X127780000Y-86450000D03*
X126220000Y-86450000D03*
%TD*%
D24*
%TO.C,U3*%
X178250000Y-99957500D03*
X177450000Y-99957500D03*
X177450000Y-101357500D03*
X178250000Y-101357500D03*
%TD*%
D25*
%TO.C,J3*%
X122280000Y-100000000D03*
X122280000Y-99500000D03*
X122280000Y-99000000D03*
X122280000Y-98500000D03*
X122280000Y-98000000D03*
X122280000Y-97500000D03*
X122280000Y-97000000D03*
X122280000Y-96500000D03*
X122280000Y-96000000D03*
X122280000Y-95500000D03*
X122280000Y-95000000D03*
X122280000Y-94500000D03*
X122280000Y-94000000D03*
X122280000Y-93500000D03*
X122280000Y-93000000D03*
X122280000Y-92500000D03*
X122280000Y-92000000D03*
X122280000Y-91500000D03*
X122280000Y-91000000D03*
X122280000Y-90490000D03*
X122280000Y-89990000D03*
X122280000Y-89490000D03*
X122280000Y-88990000D03*
X122280000Y-88490000D03*
D26*
X120020000Y-86850000D03*
X120020000Y-101650000D03*
%TD*%
D27*
%TO.C,D4*%
X106700000Y-81450000D03*
X106700000Y-78150000D03*
%TD*%
D11*
%TO.C,C7*%
X127780000Y-92450000D03*
X126220000Y-92450000D03*
%TD*%
D28*
%TO.C,Q1*%
X116690000Y-81165000D03*
X118590000Y-81165000D03*
X117640000Y-79285000D03*
%TD*%
D11*
%TO.C,C6*%
X127780000Y-98050000D03*
X126220000Y-98050000D03*
%TD*%
D29*
%TO.C,R6*%
X115100000Y-79980000D03*
X115100000Y-81620000D03*
%TD*%
D11*
%TO.C,C10*%
X127780000Y-88850000D03*
X126220000Y-88850000D03*
%TD*%
D30*
%TO.C,C14*%
X111100000Y-78040000D03*
X111100000Y-79600000D03*
%TD*%
D16*
%TO.C,H1*%
X100950000Y-66950000D03*
X101652944Y-65252944D03*
X101652944Y-68647056D03*
X103350000Y-64550000D03*
D17*
X103350000Y-66950000D03*
D16*
X103350000Y-69350000D03*
X105047056Y-65252944D03*
X105047056Y-68647056D03*
X105750000Y-66950000D03*
%TD*%
D14*
%TO.C,H7*%
X195180000Y-121320000D03*
%TD*%
D10*
%TO.C,C15*%
X106090000Y-74750000D03*
X107650000Y-74750000D03*
%TD*%
D16*
%TO.C,H2*%
X198280000Y-66950000D03*
X198982944Y-65252944D03*
X198982944Y-68647056D03*
X200680000Y-64550000D03*
D17*
X200680000Y-66950000D03*
D16*
X200680000Y-69350000D03*
X202377056Y-65252944D03*
X202377056Y-68647056D03*
X203080000Y-66950000D03*
%TD*%
D27*
%TO.C,D2*%
X113000000Y-81400000D03*
X113000000Y-78100000D03*
%TD*%
D14*
%TO.C,H6*%
X195180000Y-66950000D03*
%TD*%
M02*
