M48
; DRILL file KiCad 10.0.3 date 2026-05-19T22:32:18
; FORMAT={-:-/ absolute / inch / decimal}
; #@! TF.CreationDate,2026-05-19T22:32:18+08:00
; #@! TF.GenerationSoftware,Kicad,Pcbnew,10.0.3
; #@! TF.FileFunction,Plated,1,2,PTH
FMAT,2
INCH
; #@! TA.AperFunction,Plated,PTH,ViaDrill
T1C0.0118
; #@! TA.AperFunction,Plated,PTH,ComponentDrill
T2C0.0197
; #@! TA.AperFunction,Plated,PTH,ComponentDrill
T3C0.1260
%
G90
G05
T1
X4.1102Y-2.811
X4.4632Y-3.5014
X4.5591Y-3.4508
X4.7421Y-3.5039
X4.75Y-3.7992
X4.752Y-3.622
X4.9094Y-3.9134
X5.4311Y-3.6161
X5.4311Y-3.8346
X5.4665Y-3.6161
X5.4665Y-3.8346
X5.502Y-3.6161
X5.502Y-3.8346
X5.5374Y-3.6161
X5.5374Y-3.8346
X6.1165Y-3.7538
X6.1181Y-3.689
X6.1181Y-3.7854
X6.1181Y-3.7224
X6.5898Y-3.8157
X6.9646Y-3.7913
X7.0138Y-3.7933
X7.0138Y-4.0709
X7.0787Y-4.0472
X7.6377Y-3.5276
X7.7362Y-4.2205
X7.7377Y-3.5551
X7.8377Y-3.5906
X7.9377Y-3.6161
T2
X3.9744Y-2.6358
X3.9744Y-4.7764
X4.0021Y-2.569
X4.0021Y-2.7026
X4.0021Y-4.7096
X4.0021Y-4.8432
X4.0689Y-2.5413
X4.0689Y-2.7303
X4.0689Y-4.6819
X4.0689Y-4.8709
X4.1357Y-2.569
X4.1357Y-2.7026
X4.1357Y-4.7096
X4.1357Y-4.8432
X4.1634Y-2.6358
X4.1634Y-4.7764
X7.8063Y-2.6358
X7.8063Y-4.7764
X7.834Y-2.569
X7.834Y-2.7026
X7.834Y-4.7096
X7.834Y-4.8432
X7.9008Y-2.5413
X7.9008Y-2.7303
X7.9008Y-4.6819
X7.9008Y-4.8709
X7.9676Y-2.569
X7.9676Y-2.7026
X7.9676Y-4.7096
X7.9676Y-4.8432
X7.9953Y-2.6358
X7.9953Y-4.7764
T3
X4.0689Y-2.6358
X4.0689Y-4.7764
X7.9008Y-2.6358
X7.9008Y-4.7764
M30
