%TF.GenerationSoftware,KiCad,Pcbnew,10.0.3*%
%TF.CreationDate,2026-05-18T20:56:14+08:00*%
%TF.ProjectId,kanji,6b616e6a-692e-46b6-9963-61645f706362,rev?*%
%TF.SameCoordinates,Original*%
%TF.FileFunction,Copper,L2,Bot*%
%TF.FilePolarity,Positive*%
%FSLAX46Y46*%
G04 Gerber Fmt 4.6, Leading zero omitted, Abs format (unit mm)*
G04 Created by KiCad (PCBNEW 10.0.3) date 2026-05-18 20:56:14*
%MOMM*%
%LPD*%
G01*
G04 APERTURE LIST*
%TA.AperFunction,NonConductor*%
%ADD10C,0.000000*%
%TD*%
%TA.AperFunction,ComponentPad*%
%ADD11C,0.800000*%
%TD*%
%TA.AperFunction,ComponentPad*%
%ADD12C,6.400000*%
%TD*%
%TA.AperFunction,ViaPad*%
%ADD13C,0.600000*%
%TD*%
%TA.AperFunction,Conductor*%
%ADD14C,0.300000*%
%TD*%
%TA.AperFunction,Conductor*%
%ADD15C,0.400000*%
%TD*%
G04 APERTURE END LIST*
D10*
%TA.AperFunction,NonConductor*%
G36*
X174584438Y-59130403D02*
G01*
X174131123Y-59130403D01*
X174131123Y-59913812D01*
X174640369Y-59913812D01*
X174640369Y-60291534D01*
X173269312Y-60291534D01*
X173269312Y-59913812D01*
X173711392Y-59913812D01*
X173711392Y-58752559D01*
X174584438Y-58752559D01*
X174584438Y-59130403D01*
G37*
%TD.AperFunction*%
%TA.AperFunction,NonConductor*%
G36*
X180752547Y-59049192D02*
G01*
X180948429Y-59049192D01*
X180948429Y-58248931D01*
X181368161Y-58248931D01*
X181368161Y-60291534D01*
X180948429Y-60291534D01*
X180948429Y-59415801D01*
X180749738Y-59415801D01*
X180399982Y-60291534D01*
X179941172Y-60291534D01*
X180383251Y-59214300D01*
X179957903Y-58248931D01*
X180411217Y-58248931D01*
X180752547Y-59049192D01*
G37*
%TD.AperFunction*%
%TA.AperFunction,NonConductor*%
G36*
X176318806Y-59130403D02*
G01*
X175619295Y-59130403D01*
X175619295Y-60165626D01*
X175627076Y-60237596D01*
X175649160Y-60297321D01*
X175685118Y-60347465D01*
X175732830Y-60385982D01*
X175789309Y-60409287D01*
X175857187Y-60417441D01*
X176304884Y-60417441D01*
X176304884Y-60795162D01*
X175826413Y-60795162D01*
X175682017Y-60783769D01*
X175559866Y-60751577D01*
X175456016Y-60700332D01*
X175367480Y-60630054D01*
X175295747Y-60542698D01*
X175243678Y-60440603D01*
X175211078Y-60320886D01*
X175199563Y-60179670D01*
X175199563Y-58752559D01*
X176318806Y-58752559D01*
X176318806Y-59130403D01*
G37*
%TD.AperFunction*%
%TA.AperFunction,NonConductor*%
G36*
X174015334Y-58079847D02*
G01*
X174075437Y-58099771D01*
X174124284Y-58131450D01*
X174161972Y-58174686D01*
X174184777Y-58226925D01*
X174192794Y-58290940D01*
X174184777Y-58354956D01*
X174161972Y-58407194D01*
X174124284Y-58450431D01*
X174075437Y-58482109D01*
X174015334Y-58502033D01*
X173940980Y-58509171D01*
X173866545Y-58502028D01*
X173806449Y-58482100D01*
X173757676Y-58450431D01*
X173719987Y-58407194D01*
X173697183Y-58354956D01*
X173689166Y-58290940D01*
X173697183Y-58226925D01*
X173719987Y-58174686D01*
X173757676Y-58131450D01*
X173806449Y-58099781D01*
X173866545Y-58079853D01*
X173940980Y-58072709D01*
X174015334Y-58079847D01*
G37*
%TD.AperFunction*%
%TA.AperFunction,NonConductor*%
G36*
X175497888Y-58079847D02*
G01*
X175557991Y-58099771D01*
X175606838Y-58131450D01*
X175644527Y-58174686D01*
X175667331Y-58226925D01*
X175675348Y-58290940D01*
X175667331Y-58354956D01*
X175644527Y-58407194D01*
X175606838Y-58450431D01*
X175557991Y-58482109D01*
X175497888Y-58502033D01*
X175423534Y-58509171D01*
X175349099Y-58502028D01*
X175289003Y-58482100D01*
X175240230Y-58450431D01*
X175202542Y-58407194D01*
X175179737Y-58354956D01*
X175171720Y-58290940D01*
X175179737Y-58226925D01*
X175202542Y-58174686D01*
X175240230Y-58131450D01*
X175289003Y-58099781D01*
X175349099Y-58079853D01*
X175423534Y-58072709D01*
X175497888Y-58079847D01*
G37*
%TD.AperFunction*%
%TA.AperFunction,NonConductor*%
G36*
X189042837Y-59049416D02*
G01*
X189112710Y-59074566D01*
X189167433Y-59114315D01*
X189207882Y-59168283D01*
X189233607Y-59238508D01*
X189242990Y-59329890D01*
X189242990Y-59748119D01*
X189233718Y-59837430D01*
X189208082Y-59907359D01*
X189167433Y-59962289D01*
X189112588Y-60002933D01*
X189042711Y-60028571D01*
X188953403Y-60037846D01*
X188862021Y-60028464D01*
X188791796Y-60002738D01*
X188737828Y-59962289D01*
X188698074Y-59907481D01*
X188672926Y-59837555D01*
X188663817Y-59748119D01*
X188663817Y-59329890D01*
X188673036Y-59238377D01*
X188698273Y-59168158D01*
X188737828Y-59114315D01*
X188791671Y-59074759D01*
X188861891Y-59049523D01*
X188953403Y-59040303D01*
X189042837Y-59049416D01*
G37*
%TD.AperFunction*%
%TA.AperFunction,NonConductor*%
G36*
X196770851Y-59049587D02*
G01*
X196838567Y-59075243D01*
X196891473Y-59116000D01*
X196930254Y-59170587D01*
X196954867Y-59240415D01*
X196963799Y-59329890D01*
X196963799Y-59619476D01*
X196954870Y-59708953D01*
X196930259Y-59778833D01*
X196891473Y-59833506D01*
X196838579Y-59874182D01*
X196770862Y-59899793D01*
X196683903Y-59909063D01*
X196599098Y-59899906D01*
X196531784Y-59874387D01*
X196478019Y-59833506D01*
X196438258Y-59778700D01*
X196413113Y-59708817D01*
X196404007Y-59619476D01*
X196404007Y-59329890D01*
X196413117Y-59240552D01*
X196438264Y-59170720D01*
X196478019Y-59116000D01*
X196531795Y-59075037D01*
X196599109Y-59049475D01*
X196683903Y-59040303D01*
X196770851Y-59049587D01*
G37*
%TD.AperFunction*%
%TA.AperFunction,NonConductor*%
G36*
X177292165Y-58734446D02*
G01*
X177381210Y-58762666D01*
X177458688Y-58808613D01*
X177523715Y-58870648D01*
X177571439Y-58944543D01*
X177602791Y-59032462D01*
X177602791Y-58752559D01*
X178008478Y-58752559D01*
X178008478Y-60291534D01*
X177588747Y-60291534D01*
X177588747Y-59340208D01*
X177580980Y-59262403D01*
X177559577Y-59201684D01*
X177525854Y-59154217D01*
X177479968Y-59118523D01*
X177422743Y-59096335D01*
X177350854Y-59088393D01*
X177279051Y-59096335D01*
X177221908Y-59118522D01*
X177176099Y-59154217D01*
X177142305Y-59201693D01*
X177120864Y-59262413D01*
X177113084Y-59340208D01*
X177113084Y-60291534D01*
X176693353Y-60291534D01*
X176693353Y-59298198D01*
X176702745Y-59168481D01*
X176729326Y-59057747D01*
X176771566Y-58962842D01*
X176829152Y-58881275D01*
X176902236Y-58812925D01*
X176985058Y-58764559D01*
X177079574Y-58734916D01*
X177188677Y-58724594D01*
X177292165Y-58734446D01*
G37*
%TD.AperFunction*%
%TA.AperFunction,NonConductor*%
G36*
X179170080Y-58734095D02*
G01*
X179293452Y-58760773D01*
X179397595Y-58802664D01*
X179485537Y-58858927D01*
X179560924Y-58932133D01*
X179615082Y-59015309D01*
X179649713Y-59110281D01*
X179664567Y-59219918D01*
X179267184Y-59219918D01*
X179256724Y-59169191D01*
X179234086Y-59128924D01*
X179198674Y-59096820D01*
X179128542Y-59066261D01*
X179029291Y-59054810D01*
X178956166Y-59061024D01*
X178900106Y-59077889D01*
X178857344Y-59103781D01*
X178824218Y-59140129D01*
X178804194Y-59184516D01*
X178797138Y-59239457D01*
X178797138Y-59337399D01*
X179099267Y-59337399D01*
X179250418Y-59347088D01*
X179375432Y-59374049D01*
X179478696Y-59415961D01*
X179563817Y-59471732D01*
X179635715Y-59544650D01*
X179686599Y-59628411D01*
X179717869Y-59725176D01*
X179728803Y-59838219D01*
X179719813Y-59944201D01*
X179694099Y-60035991D01*
X179652528Y-60116171D01*
X179594591Y-60186631D01*
X179523686Y-60243360D01*
X179441059Y-60284581D01*
X179344436Y-60310390D01*
X179230792Y-60319499D01*
X179111759Y-60310004D01*
X179012724Y-60283361D01*
X178930006Y-60241219D01*
X178860299Y-60181850D01*
X178811954Y-60110791D01*
X178783094Y-60025675D01*
X178783094Y-60291534D01*
X178377407Y-60291534D01*
X178377407Y-59745895D01*
X178377407Y-59589213D01*
X178797138Y-59589213D01*
X178797138Y-59745895D01*
X178805956Y-59813268D01*
X178831386Y-59869782D01*
X178874075Y-59918086D01*
X178928873Y-59953393D01*
X178997153Y-59975739D01*
X179082536Y-59983788D01*
X179157038Y-59976822D01*
X179215056Y-59957708D01*
X179260223Y-59927856D01*
X179295210Y-59887007D01*
X179315963Y-59840089D01*
X179323115Y-59785096D01*
X179316198Y-59729953D01*
X179296281Y-59683549D01*
X179263032Y-59643801D01*
X179219746Y-59614715D01*
X179163624Y-59596041D01*
X179090963Y-59589213D01*
X178797138Y-59589213D01*
X178377407Y-59589213D01*
X178377407Y-59256310D01*
X178388917Y-59133039D01*
X178421598Y-59028975D01*
X178474309Y-58940331D01*
X178548133Y-58864545D01*
X178636210Y-58806249D01*
X178742353Y-58762603D01*
X178870104Y-58734623D01*
X179023796Y-58724594D01*
X179170080Y-58734095D01*
G37*
%TD.AperFunction*%
%TA.AperFunction,NonConductor*%
G36*
X201385497Y-61258644D02*
G01*
X184062075Y-61258644D01*
X184062075Y-58895510D01*
X184317631Y-58895510D01*
X184317631Y-59329890D01*
X184964356Y-59329890D01*
X184964356Y-60423915D01*
X185447047Y-60423915D01*
X186170592Y-60423915D01*
X186717604Y-60423915D01*
X186839982Y-60414701D01*
X186948628Y-60388155D01*
X187045812Y-60345128D01*
X187133450Y-60285366D01*
X187206540Y-60212276D01*
X187266302Y-60124638D01*
X187309329Y-60027455D01*
X187335875Y-59918808D01*
X187345088Y-59796430D01*
X187345088Y-59748119D01*
X188181266Y-59748119D01*
X188192356Y-59887146D01*
X188224308Y-60010133D01*
X188276203Y-60119863D01*
X188347650Y-60217777D01*
X188436015Y-60300000D01*
X188543179Y-60367598D01*
X188661069Y-60415459D01*
X188796717Y-60445505D01*
X188953403Y-60456075D01*
X189107995Y-60445578D01*
X189243228Y-60415598D01*
X189362083Y-60367598D01*
X189470240Y-60299914D01*
X189559136Y-60217680D01*
X189630744Y-60119863D01*
X189682639Y-60010133D01*
X189714591Y-59887146D01*
X189725681Y-59748119D01*
X189725681Y-59329890D01*
X189714593Y-59190957D01*
X189682643Y-59068014D01*
X189630744Y-58958286D01*
X189559127Y-58860382D01*
X189470230Y-58778103D01*
X189362083Y-58710410D01*
X189243228Y-58662410D01*
X189107995Y-58632430D01*
X188953403Y-58621934D01*
X188796717Y-58632504D01*
X188661069Y-58662550D01*
X188543179Y-58710410D01*
X188436025Y-58778017D01*
X188347659Y-58860284D01*
X188276203Y-58958286D01*
X188224303Y-59068014D01*
X188192353Y-59190957D01*
X188181266Y-59329890D01*
X188181266Y-59748119D01*
X187345088Y-59748119D01*
X187345088Y-59329890D01*
X187345088Y-58509301D01*
X187908111Y-58509301D01*
X187908111Y-58074921D01*
X189950525Y-58074921D01*
X190185340Y-60423915D01*
X190687411Y-60423915D01*
X190844985Y-58863349D01*
X190856360Y-58720101D01*
X190870826Y-58535142D01*
X190883606Y-58364508D01*
X190893296Y-58535142D01*
X190906216Y-58720101D01*
X190918996Y-58863349D01*
X191092861Y-60423915D01*
X191598022Y-60423915D01*
X191722403Y-59088614D01*
X192041671Y-59088614D01*
X192733476Y-59088614D01*
X192733476Y-59828591D01*
X192723777Y-59894387D01*
X192696541Y-59944454D01*
X192652414Y-59977680D01*
X192588683Y-59989535D01*
X192057681Y-59989535D01*
X192057681Y-60423915D01*
X192636854Y-60423915D01*
X193984653Y-60423915D01*
X194467344Y-60423915D01*
X194467344Y-59329890D01*
X194476291Y-59240426D01*
X194500949Y-59170598D01*
X194539811Y-59116000D01*
X194592491Y-59074951D01*
X194658207Y-59049436D01*
X194740780Y-59040303D01*
X194823452Y-59049436D01*
X194889261Y-59074952D01*
X194942030Y-59116000D01*
X194980811Y-59170587D01*
X195005424Y-59240415D01*
X195014357Y-59329890D01*
X195014357Y-60423915D01*
X195497048Y-60423915D01*
X195497048Y-58654094D01*
X195921316Y-58654094D01*
X195921316Y-59329890D01*
X195921316Y-60378833D01*
X195934534Y-60520355D01*
X195972246Y-60641180D01*
X196033348Y-60745371D01*
X196119195Y-60835684D01*
X196221820Y-60906061D01*
X196343318Y-60958197D01*
X196487288Y-60991306D01*
X196658203Y-61003088D01*
X197173054Y-61003088D01*
X197173054Y-60617019D01*
X196674213Y-60617019D01*
X196586606Y-60608574D01*
X196518965Y-60585451D01*
X196466783Y-60549327D01*
X196427349Y-60500015D01*
X196402996Y-60439000D01*
X196401277Y-60423915D01*
X197767816Y-60423915D01*
X199344532Y-60423915D01*
X199698019Y-60423915D01*
X201129941Y-60423915D01*
X201129941Y-58074921D01*
X200647250Y-58074921D01*
X200647250Y-59989535D01*
X199698019Y-59989535D01*
X199698019Y-60423915D01*
X199344532Y-60423915D01*
X199344532Y-59989535D01*
X198758899Y-59989535D01*
X198758899Y-59088614D01*
X199280211Y-59088614D01*
X199280211Y-58654094D01*
X198276208Y-58654094D01*
X198276208Y-59989535D01*
X197767816Y-59989535D01*
X197767816Y-60423915D01*
X196401277Y-60423915D01*
X196394316Y-60362823D01*
X196394316Y-60295272D01*
X196391086Y-60031386D01*
X196441050Y-60120059D01*
X196502009Y-60192348D01*
X196574501Y-60250191D01*
X196657006Y-60292375D01*
X196750562Y-60318376D01*
X196857627Y-60327432D01*
X196987846Y-60315118D01*
X197100459Y-60279780D01*
X197198954Y-60222165D01*
X197285687Y-60140788D01*
X197353516Y-60043772D01*
X197377282Y-59989535D01*
X197403566Y-59929554D01*
X197435244Y-59794870D01*
X197446490Y-59635627D01*
X197446490Y-59313739D01*
X197435311Y-59156310D01*
X197403733Y-59022379D01*
X197353692Y-58908061D01*
X197285687Y-58810263D01*
X197198848Y-58728072D01*
X197100316Y-58669953D01*
X196987742Y-58634338D01*
X196857627Y-58621934D01*
X196748491Y-58631230D01*
X196653927Y-58657832D01*
X196571270Y-58700861D01*
X196498717Y-58759614D01*
X196437758Y-58832448D01*
X196387856Y-58921210D01*
X196387856Y-58654094D01*
X195921316Y-58654094D01*
X195497048Y-58654094D01*
X195497048Y-58123232D01*
X198250648Y-58123232D01*
X198259868Y-58196850D01*
X198286093Y-58256924D01*
X198329434Y-58306647D01*
X198385524Y-58343066D01*
X198454634Y-58365983D01*
X198540234Y-58374198D01*
X198625741Y-58365989D01*
X198694860Y-58343077D01*
X198751034Y-58306647D01*
X198794376Y-58256924D01*
X198820601Y-58196850D01*
X198829821Y-58123232D01*
X198820601Y-58049615D01*
X198794376Y-57989540D01*
X198751034Y-57939818D01*
X198694860Y-57903388D01*
X198625741Y-57880476D01*
X198540234Y-57872267D01*
X198454634Y-57880482D01*
X198385524Y-57903399D01*
X198329434Y-57939818D01*
X198286093Y-57989540D01*
X198259868Y-58049615D01*
X198250648Y-58123232D01*
X195497048Y-58123232D01*
X195497048Y-58074921D01*
X195014357Y-58074921D01*
X195014357Y-58654094D01*
X195030507Y-58972752D01*
X194992566Y-58871670D01*
X194936572Y-58787205D01*
X194861558Y-58716871D01*
X194772625Y-58664874D01*
X194671228Y-58633021D01*
X194554276Y-58621934D01*
X194428808Y-58633804D01*
X194320114Y-58667894D01*
X194224869Y-58723514D01*
X194140822Y-58802118D01*
X194074598Y-58895920D01*
X194026022Y-59005060D01*
X193995454Y-59132404D01*
X193984653Y-59281578D01*
X193984653Y-60423915D01*
X192636854Y-60423915D01*
X192770955Y-60413244D01*
X192884118Y-60383116D01*
X192980087Y-60335180D01*
X193061684Y-60269431D01*
X193127374Y-60187842D01*
X193175267Y-60091896D01*
X193205367Y-59978775D01*
X193216027Y-59844741D01*
X193216027Y-59281578D01*
X193216027Y-59088614D01*
X193692258Y-59088614D01*
X193692258Y-58654094D01*
X193216027Y-58654094D01*
X193216027Y-58155393D01*
X192733476Y-58155393D01*
X192733476Y-58654094D01*
X192041671Y-58654094D01*
X192041671Y-59088614D01*
X191722403Y-59088614D01*
X191762878Y-58654094D01*
X191816827Y-58074921D01*
X191433848Y-58074921D01*
X191314896Y-59645177D01*
X191306891Y-59772415D01*
X191297200Y-59942909D01*
X191292285Y-60102167D01*
X191277820Y-59942909D01*
X191261810Y-59772415D01*
X191250434Y-59645177D01*
X191063790Y-58074921D01*
X190697102Y-58074921D01*
X190516777Y-59645177D01*
X190502452Y-59772415D01*
X190484757Y-59942909D01*
X190468606Y-60102167D01*
X190462146Y-59942909D01*
X190454141Y-59772415D01*
X190445996Y-59645177D01*
X190336593Y-58074921D01*
X189950525Y-58074921D01*
X187908111Y-58074921D01*
X186862397Y-58074921D01*
X186862397Y-59780420D01*
X186848536Y-59866519D01*
X186809311Y-59931674D01*
X186748692Y-59974683D01*
X186669293Y-59989535D01*
X186170592Y-59989535D01*
X186170592Y-60423915D01*
X185447047Y-60423915D01*
X185447047Y-59989535D01*
X185447047Y-59329890D01*
X185916817Y-59329890D01*
X185916817Y-58895510D01*
X185447047Y-58895510D01*
X185447047Y-58621934D01*
X185435854Y-58500907D01*
X185403770Y-58396313D01*
X185351579Y-58304954D01*
X185278098Y-58224630D01*
X185189869Y-58160746D01*
X185088459Y-58114226D01*
X184971411Y-58085145D01*
X184835573Y-58074921D01*
X184317631Y-58074921D01*
X184317631Y-58493291D01*
X184819562Y-58493291D01*
X184878697Y-58503685D01*
X184924190Y-58533597D01*
X184953988Y-58578962D01*
X184964356Y-58638084D01*
X184964356Y-58895510D01*
X184317631Y-58895510D01*
X184062075Y-58895510D01*
X184062075Y-58493291D01*
X184062075Y-57616711D01*
X201385497Y-57616711D01*
X201385497Y-61258644D01*
G37*
%TD.AperFunction*%
D11*
%TO.P,H3,1,1_1*%
%TO.N,GND*%
X100950000Y-121320000D03*
X101652944Y-119622944D03*
X101652944Y-123017056D03*
X103350000Y-118920000D03*
D12*
X103350000Y-121320000D03*
D11*
X103350000Y-123720000D03*
X105047056Y-119622944D03*
X105047056Y-123017056D03*
X105750000Y-121320000D03*
%TD*%
%TO.P,H4,1,1_1*%
%TO.N,GND*%
X198280000Y-121320000D03*
X198982944Y-119622944D03*
X198982944Y-123017056D03*
X200680000Y-118920000D03*
D12*
X200680000Y-121320000D03*
D11*
X200680000Y-123720000D03*
X202377056Y-119622944D03*
X202377056Y-123017056D03*
X203080000Y-121320000D03*
%TD*%
%TO.P,H1,1,1_1*%
%TO.N,GND*%
X100950000Y-66950000D03*
X101652944Y-65252944D03*
X101652944Y-68647056D03*
X103350000Y-64550000D03*
D12*
X103350000Y-66950000D03*
D11*
X103350000Y-69350000D03*
X105047056Y-65252944D03*
X105047056Y-68647056D03*
X105750000Y-66950000D03*
%TD*%
%TO.P,H2,1,1_1*%
%TO.N,GND*%
X198280000Y-66950000D03*
X198982944Y-65252944D03*
X198982944Y-68647056D03*
X200680000Y-64550000D03*
D12*
X200680000Y-66950000D03*
D11*
X200680000Y-69350000D03*
X202377056Y-65252944D03*
X202377056Y-68647056D03*
X203080000Y-66950000D03*
%TD*%
D13*
%TO.N,/RST*%
X155359314Y-95347668D03*
%TO.N,+3V3*%
X196500000Y-107200000D03*
X178150000Y-96350000D03*
X178800000Y-104650000D03*
X104400000Y-71400000D03*
%TO.N,GND*%
X120700000Y-92000000D03*
X140650000Y-91850000D03*
X138850000Y-91850000D03*
X140650000Y-97400000D03*
X137950000Y-97400000D03*
X139750000Y-91850000D03*
X120650000Y-96500000D03*
X137950000Y-91850000D03*
X138850000Y-97400000D03*
X139750000Y-97400000D03*
%TO.N,/VGL*%
X120450000Y-89000000D03*
X113365380Y-88934620D03*
%TO.N,/BUSY*%
X155400000Y-96150000D03*
X201618000Y-91850000D03*
%TO.N,/RST*%
X199078000Y-91200000D03*
%TO.N,/DC*%
X196538000Y-90300000D03*
X155400066Y-94548704D03*
%TO.N,/CS*%
X193998000Y-89600000D03*
X155400000Y-93700000D03*
%TO.N,/GDR*%
X115800000Y-87650000D03*
X124700000Y-99400000D03*
%TD*%
%TO.N,/RST*%
D14*
X161350000Y-91200000D02*
X199078000Y-91200000D01*
X157150000Y-95400000D02*
X161350000Y-91200000D01*
X155411646Y-95400000D02*
X157150000Y-95400000D01*
X155359314Y-95347668D02*
X155411646Y-95400000D01*
%TO.N,/BUSY*%
X157200000Y-96150000D02*
X161500000Y-91850000D01*
X155400000Y-96150000D02*
X157200000Y-96150000D01*
X161500000Y-91850000D02*
X201618000Y-91850000D01*
%TO.N,/CS*%
X193898000Y-89700000D02*
X193998000Y-89600000D01*
X161200000Y-89700000D02*
X193898000Y-89700000D01*
X155400000Y-93700000D02*
X157200000Y-93700000D01*
X157200000Y-93700000D02*
X161200000Y-89700000D01*
%TO.N,/DC*%
X196388000Y-90450000D02*
X196538000Y-90300000D01*
X161292894Y-90450000D02*
X196388000Y-90450000D01*
X157192894Y-94550000D02*
X161292894Y-90450000D01*
X155401362Y-94550000D02*
X157192894Y-94550000D01*
X155400066Y-94548704D02*
X155401362Y-94550000D01*
%TO.N,+3V3*%
D15*
X181350000Y-107200000D02*
X178800000Y-104650000D01*
X178800000Y-104650000D02*
X178150000Y-104000000D01*
X109500000Y-107200000D02*
X104400000Y-102100000D01*
X178150000Y-104000000D02*
X178150000Y-96350000D01*
X104400000Y-102100000D02*
X104400000Y-71400000D01*
X196500000Y-107200000D02*
X181350000Y-107200000D01*
X181350000Y-107200000D02*
X109500000Y-107200000D01*
%TO.N,/VGL*%
D14*
X113430760Y-89000000D02*
X120450000Y-89000000D01*
X113365380Y-88934620D02*
X113430760Y-89000000D01*
%TO.N,/GDR*%
X122550000Y-87650000D02*
X115800000Y-87650000D01*
X124700000Y-89800000D02*
X122550000Y-87650000D01*
X124700000Y-99400000D02*
X124700000Y-89800000D01*
%TD*%
%TA.AperFunction,Conductor*%
%TO.N,GND*%
G36*
X201683736Y-55000726D02*
G01*
X201973796Y-55018271D01*
X201988659Y-55020076D01*
X202270797Y-55071780D01*
X202285334Y-55075363D01*
X202559182Y-55160698D01*
X202573163Y-55166000D01*
X202834734Y-55283724D01*
X202847987Y-55290680D01*
X203093458Y-55439071D01*
X203105776Y-55447573D01*
X203331573Y-55624474D01*
X203342781Y-55634404D01*
X203545595Y-55837218D01*
X203555525Y-55848426D01*
X203732422Y-56074217D01*
X203740928Y-56086541D01*
X203889319Y-56332012D01*
X203896277Y-56345269D01*
X204013994Y-56606823D01*
X204019304Y-56620825D01*
X204104635Y-56894664D01*
X204108219Y-56909202D01*
X204159923Y-57191340D01*
X204161728Y-57206205D01*
X204179274Y-57496263D01*
X204179500Y-57503750D01*
X204179500Y-124695500D01*
X204159815Y-124762539D01*
X204107011Y-124808294D01*
X204055500Y-124819500D01*
X99974500Y-124819500D01*
X99907461Y-124799815D01*
X99861706Y-124747011D01*
X99850500Y-124695500D01*
X99850500Y-121238592D01*
X108023500Y-121238592D01*
X108023500Y-121401407D01*
X108055259Y-121561073D01*
X108055262Y-121561082D01*
X108117562Y-121711490D01*
X108117563Y-121711492D01*
X108208015Y-121846862D01*
X108208018Y-121846866D01*
X108323133Y-121961981D01*
X108323137Y-121961984D01*
X108458505Y-122052435D01*
X108458506Y-122052435D01*
X108458507Y-122052436D01*
X108458509Y-122052437D01*
X108558781Y-122093970D01*
X108608919Y-122114738D01*
X108608921Y-122114738D01*
X108608926Y-122114740D01*
X108768592Y-122146499D01*
X108768595Y-122146500D01*
X108768597Y-122146500D01*
X108931405Y-122146500D01*
X108931406Y-122146499D01*
X108984629Y-122135912D01*
X109091073Y-122114740D01*
X109091076Y-122114738D01*
X109091081Y-122114738D01*
X109241495Y-122052435D01*
X109376863Y-121961984D01*
X109491984Y-121846863D01*
X109582435Y-121711495D01*
X109644738Y-121561081D01*
X109676500Y-121401403D01*
X109676500Y-121238597D01*
X109676500Y-121238594D01*
X109676499Y-121238592D01*
X194353500Y-121238592D01*
X194353500Y-121401407D01*
X194385259Y-121561073D01*
X194385262Y-121561082D01*
X194447562Y-121711490D01*
X194447563Y-121711492D01*
X194538015Y-121846862D01*
X194538018Y-121846866D01*
X194653133Y-121961981D01*
X194653137Y-121961984D01*
X194788505Y-122052435D01*
X194788506Y-122052435D01*
X194788507Y-122052436D01*
X194788509Y-122052437D01*
X194888781Y-122093970D01*
X194938919Y-122114738D01*
X194938921Y-122114738D01*
X194938926Y-122114740D01*
X195098592Y-122146499D01*
X195098595Y-122146500D01*
X195098597Y-122146500D01*
X195261405Y-122146500D01*
X195261406Y-122146499D01*
X195314629Y-122135912D01*
X195421073Y-122114740D01*
X195421076Y-122114738D01*
X195421081Y-122114738D01*
X195571495Y-122052435D01*
X195706863Y-121961984D01*
X195821984Y-121846863D01*
X195912435Y-121711495D01*
X195974738Y-121561081D01*
X196006500Y-121401403D01*
X196006500Y-121238597D01*
X196006500Y-121238594D01*
X196006499Y-121238592D01*
X195974740Y-121078926D01*
X195974737Y-121078917D01*
X195912437Y-120928509D01*
X195912436Y-120928507D01*
X195821984Y-120793137D01*
X195821981Y-120793133D01*
X195706866Y-120678018D01*
X195706862Y-120678015D01*
X195571492Y-120587563D01*
X195571490Y-120587562D01*
X195421082Y-120525262D01*
X195421073Y-120525259D01*
X195261406Y-120493500D01*
X195261403Y-120493500D01*
X195098597Y-120493500D01*
X195098594Y-120493500D01*
X194938926Y-120525259D01*
X194938917Y-120525262D01*
X194788509Y-120587562D01*
X194788507Y-120587563D01*
X194653137Y-120678015D01*
X194653133Y-120678018D01*
X194538018Y-120793133D01*
X194538015Y-120793137D01*
X194447563Y-120928507D01*
X194447562Y-120928509D01*
X194385262Y-121078917D01*
X194385259Y-121078926D01*
X194353500Y-121238592D01*
X109676499Y-121238592D01*
X109644740Y-121078926D01*
X109644737Y-121078917D01*
X109582437Y-120928509D01*
X109582436Y-120928507D01*
X109491984Y-120793137D01*
X109491981Y-120793133D01*
X109376866Y-120678018D01*
X109376862Y-120678015D01*
X109241492Y-120587563D01*
X109241490Y-120587562D01*
X109091082Y-120525262D01*
X109091073Y-120525259D01*
X108931406Y-120493500D01*
X108931403Y-120493500D01*
X108768597Y-120493500D01*
X108768594Y-120493500D01*
X108608926Y-120525259D01*
X108608917Y-120525262D01*
X108458509Y-120587562D01*
X108458507Y-120587563D01*
X108323137Y-120678015D01*
X108323133Y-120678018D01*
X108208018Y-120793133D01*
X108208015Y-120793137D01*
X108117563Y-120928507D01*
X108117562Y-120928509D01*
X108055262Y-121078917D01*
X108055259Y-121078926D01*
X108023500Y-121238592D01*
X99850500Y-121238592D01*
X99850500Y-71321153D01*
X103599500Y-71321153D01*
X103599500Y-71478846D01*
X103630261Y-71633489D01*
X103630264Y-71633501D01*
X103690061Y-71777864D01*
X103699500Y-71825316D01*
X103699500Y-102031006D01*
X103699500Y-102168994D01*
X103699500Y-102168996D01*
X103699499Y-102168996D01*
X103726418Y-102304322D01*
X103726421Y-102304332D01*
X103779222Y-102431807D01*
X103855887Y-102546545D01*
X109053454Y-107744112D01*
X109168190Y-107820776D01*
X109266790Y-107861617D01*
X109295671Y-107873580D01*
X109295672Y-107873580D01*
X109295677Y-107873582D01*
X109322545Y-107878925D01*
X109322551Y-107878926D01*
X109322591Y-107878934D01*
X109412937Y-107896905D01*
X109431006Y-107900500D01*
X109431007Y-107900500D01*
X181281006Y-107900500D01*
X181281007Y-107900500D01*
X196074684Y-107900500D01*
X196122136Y-107909939D01*
X196266498Y-107969735D01*
X196266503Y-107969737D01*
X196421153Y-108000499D01*
X196421156Y-108000500D01*
X196421158Y-108000500D01*
X196578844Y-108000500D01*
X196578845Y-108000499D01*
X196733497Y-107969737D01*
X196879179Y-107909394D01*
X197010289Y-107821789D01*
X197121789Y-107710289D01*
X197209394Y-107579179D01*
X197269737Y-107433497D01*
X197300500Y-107278842D01*
X197300500Y-107121158D01*
X197300500Y-107121155D01*
X197300499Y-107121153D01*
X197269738Y-106966510D01*
X197269737Y-106966503D01*
X197269735Y-106966498D01*
X197209397Y-106820827D01*
X197209390Y-106820814D01*
X197121789Y-106689711D01*
X197121786Y-106689707D01*
X197010292Y-106578213D01*
X197010288Y-106578210D01*
X196879185Y-106490609D01*
X196879172Y-106490602D01*
X196733501Y-106430264D01*
X196733489Y-106430261D01*
X196578845Y-106399500D01*
X196578842Y-106399500D01*
X196421158Y-106399500D01*
X196421155Y-106399500D01*
X196266510Y-106430261D01*
X196266498Y-106430264D01*
X196122136Y-106490061D01*
X196074684Y-106499500D01*
X181691519Y-106499500D01*
X181624480Y-106479815D01*
X181603838Y-106463181D01*
X179596071Y-104455414D01*
X179569191Y-104415185D01*
X179509397Y-104270827D01*
X179509390Y-104270814D01*
X179421789Y-104139711D01*
X179421786Y-104139707D01*
X179310292Y-104028213D01*
X179310288Y-104028210D01*
X179179185Y-103940609D01*
X179179172Y-103940602D01*
X179034814Y-103880808D01*
X179027881Y-103876175D01*
X179022839Y-103875079D01*
X178994585Y-103853928D01*
X178886819Y-103746162D01*
X178853334Y-103684839D01*
X178850500Y-103658481D01*
X178850500Y-96775316D01*
X178859939Y-96727864D01*
X178919735Y-96583501D01*
X178919737Y-96583497D01*
X178950500Y-96428842D01*
X178950500Y-96271158D01*
X178950500Y-96271155D01*
X178950499Y-96271153D01*
X178919737Y-96116503D01*
X178900953Y-96071153D01*
X178859397Y-95970827D01*
X178859390Y-95970814D01*
X178771789Y-95839711D01*
X178771786Y-95839707D01*
X178660292Y-95728213D01*
X178660288Y-95728210D01*
X178529185Y-95640609D01*
X178529172Y-95640602D01*
X178383501Y-95580264D01*
X178383489Y-95580261D01*
X178228845Y-95549500D01*
X178228842Y-95549500D01*
X178071158Y-95549500D01*
X178071155Y-95549500D01*
X177916510Y-95580261D01*
X177916498Y-95580264D01*
X177770827Y-95640602D01*
X177770814Y-95640609D01*
X177639711Y-95728210D01*
X177639707Y-95728213D01*
X177528213Y-95839707D01*
X177528210Y-95839711D01*
X177440609Y-95970814D01*
X177440602Y-95970827D01*
X177380264Y-96116498D01*
X177380261Y-96116510D01*
X177349500Y-96271153D01*
X177349500Y-96428846D01*
X177380261Y-96583489D01*
X177380264Y-96583501D01*
X177440061Y-96727864D01*
X177449500Y-96775316D01*
X177449500Y-103931006D01*
X177449500Y-104068994D01*
X177449500Y-104068996D01*
X177449499Y-104068996D01*
X177476418Y-104204322D01*
X177476421Y-104204332D01*
X177529222Y-104331807D01*
X177605887Y-104446545D01*
X177605888Y-104446546D01*
X178003928Y-104844585D01*
X178030808Y-104884814D01*
X178090602Y-105029172D01*
X178090609Y-105029185D01*
X178178210Y-105160288D01*
X178178213Y-105160292D01*
X178289707Y-105271786D01*
X178289711Y-105271789D01*
X178420814Y-105359390D01*
X178420827Y-105359397D01*
X178565185Y-105419191D01*
X178605414Y-105446071D01*
X179447162Y-106287819D01*
X179480647Y-106349142D01*
X179475663Y-106418834D01*
X179433791Y-106474767D01*
X179368327Y-106499184D01*
X179359481Y-106499500D01*
X109841519Y-106499500D01*
X109774480Y-106479815D01*
X109753838Y-106463181D01*
X105136819Y-101846162D01*
X105103334Y-101784839D01*
X105100500Y-101758481D01*
X105100500Y-88855773D01*
X112564880Y-88855773D01*
X112564880Y-89013466D01*
X112595641Y-89168109D01*
X112595644Y-89168121D01*
X112655982Y-89313792D01*
X112655989Y-89313805D01*
X112743590Y-89444908D01*
X112743593Y-89444912D01*
X112855087Y-89556406D01*
X112855091Y-89556409D01*
X112986194Y-89644010D01*
X112986207Y-89644017D01*
X113131878Y-89704355D01*
X113131883Y-89704357D01*
X113245772Y-89727011D01*
X113286533Y-89735119D01*
X113286536Y-89735120D01*
X113286538Y-89735120D01*
X113444224Y-89735120D01*
X113444225Y-89735119D01*
X113598877Y-89704357D01*
X113661995Y-89678213D01*
X113706113Y-89659939D01*
X113753565Y-89650500D01*
X119945065Y-89650500D01*
X120012104Y-89670185D01*
X120013909Y-89671366D01*
X120070821Y-89709394D01*
X120070823Y-89709395D01*
X120070827Y-89709397D01*
X120134887Y-89735931D01*
X120216503Y-89769737D01*
X120366131Y-89799500D01*
X120371153Y-89800499D01*
X120371156Y-89800500D01*
X120371158Y-89800500D01*
X120528844Y-89800500D01*
X120528845Y-89800499D01*
X120683497Y-89769737D01*
X120829179Y-89709394D01*
X120960289Y-89621789D01*
X121071789Y-89510289D01*
X121159394Y-89379179D01*
X121219737Y-89233497D01*
X121250500Y-89078842D01*
X121250500Y-88921158D01*
X121250500Y-88921155D01*
X121250499Y-88921153D01*
X121232419Y-88830261D01*
X121219737Y-88766503D01*
X121192654Y-88701118D01*
X121159397Y-88620827D01*
X121159390Y-88620814D01*
X121074248Y-88493391D01*
X121053370Y-88426714D01*
X121071854Y-88359334D01*
X121123833Y-88312643D01*
X121177350Y-88300500D01*
X122229192Y-88300500D01*
X122296231Y-88320185D01*
X122316873Y-88336819D01*
X124013181Y-90033126D01*
X124046666Y-90094449D01*
X124049500Y-90120807D01*
X124049500Y-98895064D01*
X124029815Y-98962103D01*
X124028603Y-98963954D01*
X123990608Y-99020817D01*
X123990602Y-99020828D01*
X123930264Y-99166498D01*
X123930261Y-99166510D01*
X123899500Y-99321153D01*
X123899500Y-99478846D01*
X123930261Y-99633489D01*
X123930264Y-99633501D01*
X123990602Y-99779172D01*
X123990609Y-99779185D01*
X124078210Y-99910288D01*
X124078213Y-99910292D01*
X124189707Y-100021786D01*
X124189711Y-100021789D01*
X124320814Y-100109390D01*
X124320827Y-100109397D01*
X124466498Y-100169735D01*
X124466503Y-100169737D01*
X124621153Y-100200499D01*
X124621156Y-100200500D01*
X124621158Y-100200500D01*
X124778844Y-100200500D01*
X124778845Y-100200499D01*
X124933497Y-100169737D01*
X125079179Y-100109394D01*
X125210289Y-100021789D01*
X125321789Y-99910289D01*
X125409394Y-99779179D01*
X125469737Y-99633497D01*
X125500500Y-99478842D01*
X125500500Y-99321158D01*
X125500500Y-99321155D01*
X125500499Y-99321153D01*
X125469738Y-99166510D01*
X125469737Y-99166503D01*
X125409394Y-99020821D01*
X125371396Y-98963953D01*
X125350520Y-98897276D01*
X125350500Y-98895064D01*
X125350500Y-95268821D01*
X154558814Y-95268821D01*
X154558814Y-95426514D01*
X154589575Y-95581157D01*
X154589578Y-95581169D01*
X154649916Y-95726839D01*
X154652793Y-95732221D01*
X154651562Y-95732878D01*
X154670335Y-95792831D01*
X154660917Y-95842496D01*
X154630262Y-95916506D01*
X154630260Y-95916511D01*
X154599500Y-96071153D01*
X154599500Y-96228846D01*
X154630261Y-96383489D01*
X154630264Y-96383501D01*
X154690602Y-96529172D01*
X154690609Y-96529185D01*
X154778210Y-96660288D01*
X154778213Y-96660292D01*
X154889707Y-96771786D01*
X154889711Y-96771789D01*
X155020814Y-96859390D01*
X155020827Y-96859397D01*
X155166498Y-96919735D01*
X155166503Y-96919737D01*
X155321153Y-96950499D01*
X155321156Y-96950500D01*
X155321158Y-96950500D01*
X155478844Y-96950500D01*
X155478845Y-96950499D01*
X155633497Y-96919737D01*
X155779179Y-96859394D01*
X155836044Y-96821397D01*
X155902721Y-96800520D01*
X155904935Y-96800500D01*
X157264071Y-96800500D01*
X157348615Y-96783682D01*
X157389744Y-96775501D01*
X157508127Y-96726465D01*
X157614669Y-96655277D01*
X161733127Y-92536819D01*
X161794450Y-92503334D01*
X161820808Y-92500500D01*
X201113065Y-92500500D01*
X201180104Y-92520185D01*
X201181909Y-92521366D01*
X201238821Y-92559394D01*
X201238823Y-92559395D01*
X201238827Y-92559397D01*
X201384498Y-92619735D01*
X201384503Y-92619737D01*
X201539153Y-92650499D01*
X201539156Y-92650500D01*
X201539158Y-92650500D01*
X201696844Y-92650500D01*
X201696845Y-92650499D01*
X201851497Y-92619737D01*
X201997179Y-92559394D01*
X202128289Y-92471789D01*
X202239789Y-92360289D01*
X202327394Y-92229179D01*
X202387737Y-92083497D01*
X202418500Y-91928842D01*
X202418500Y-91771158D01*
X202418500Y-91771155D01*
X202418499Y-91771153D01*
X202387738Y-91616510D01*
X202387737Y-91616503D01*
X202387735Y-91616498D01*
X202327397Y-91470827D01*
X202327390Y-91470814D01*
X202239789Y-91339711D01*
X202239786Y-91339707D01*
X202128292Y-91228213D01*
X202128288Y-91228210D01*
X201997185Y-91140609D01*
X201997172Y-91140602D01*
X201851501Y-91080264D01*
X201851489Y-91080261D01*
X201696845Y-91049500D01*
X201696842Y-91049500D01*
X201539158Y-91049500D01*
X201539155Y-91049500D01*
X201384510Y-91080261D01*
X201384498Y-91080264D01*
X201238827Y-91140602D01*
X201238820Y-91140606D01*
X201209928Y-91159911D01*
X201181955Y-91178602D01*
X201115279Y-91199480D01*
X201113065Y-91199500D01*
X199995848Y-91199500D01*
X199928809Y-91179815D01*
X199883054Y-91127011D01*
X199874231Y-91099692D01*
X199847738Y-90966508D01*
X199847737Y-90966507D01*
X199847737Y-90966503D01*
X199847735Y-90966498D01*
X199787397Y-90820827D01*
X199787390Y-90820814D01*
X199699789Y-90689711D01*
X199699786Y-90689707D01*
X199588292Y-90578213D01*
X199588288Y-90578210D01*
X199457185Y-90490609D01*
X199457172Y-90490602D01*
X199311501Y-90430264D01*
X199311489Y-90430261D01*
X199156845Y-90399500D01*
X199156842Y-90399500D01*
X198999158Y-90399500D01*
X198999155Y-90399500D01*
X198844510Y-90430261D01*
X198844498Y-90430264D01*
X198698827Y-90490602D01*
X198698820Y-90490606D01*
X198669928Y-90509911D01*
X198641955Y-90528602D01*
X198575279Y-90549480D01*
X198573065Y-90549500D01*
X197455649Y-90549500D01*
X197388610Y-90529815D01*
X197342855Y-90477011D01*
X197332911Y-90407853D01*
X197334031Y-90401310D01*
X197338500Y-90378841D01*
X197338500Y-90221155D01*
X197338499Y-90221153D01*
X197307738Y-90066510D01*
X197307737Y-90066503D01*
X197293912Y-90033126D01*
X197247397Y-89920827D01*
X197247390Y-89920814D01*
X197159789Y-89789711D01*
X197159786Y-89789707D01*
X197048292Y-89678213D01*
X197048288Y-89678210D01*
X196917185Y-89590609D01*
X196917172Y-89590602D01*
X196771501Y-89530264D01*
X196771489Y-89530261D01*
X196616845Y-89499500D01*
X196616842Y-89499500D01*
X196459158Y-89499500D01*
X196459155Y-89499500D01*
X196304510Y-89530261D01*
X196304498Y-89530264D01*
X196158827Y-89590602D01*
X196158814Y-89590609D01*
X196027712Y-89678209D01*
X196001567Y-89704355D01*
X195942739Y-89763182D01*
X195881419Y-89796666D01*
X195855060Y-89799500D01*
X194922500Y-89799500D01*
X194855461Y-89779815D01*
X194809706Y-89727011D01*
X194798500Y-89675500D01*
X194798500Y-89521155D01*
X194798499Y-89521153D01*
X194792673Y-89491866D01*
X194767737Y-89366503D01*
X194745909Y-89313805D01*
X194707397Y-89220827D01*
X194707390Y-89220814D01*
X194619789Y-89089711D01*
X194619786Y-89089707D01*
X194508292Y-88978213D01*
X194508288Y-88978210D01*
X194377185Y-88890609D01*
X194377172Y-88890602D01*
X194231501Y-88830264D01*
X194231489Y-88830261D01*
X194076845Y-88799500D01*
X194076842Y-88799500D01*
X193919158Y-88799500D01*
X193919155Y-88799500D01*
X193764510Y-88830261D01*
X193764498Y-88830264D01*
X193618827Y-88890602D01*
X193618814Y-88890609D01*
X193487711Y-88978210D01*
X193487707Y-88978213D01*
X193452742Y-89013180D01*
X193391420Y-89046666D01*
X193365060Y-89049500D01*
X161135929Y-89049500D01*
X161010261Y-89074497D01*
X161010255Y-89074499D01*
X160891870Y-89123535D01*
X160785331Y-89194722D01*
X160785324Y-89194728D01*
X156966873Y-93013181D01*
X156905550Y-93046666D01*
X156879192Y-93049500D01*
X155904935Y-93049500D01*
X155837896Y-93029815D01*
X155836090Y-93028633D01*
X155779179Y-92990606D01*
X155779172Y-92990602D01*
X155633501Y-92930264D01*
X155633489Y-92930261D01*
X155478845Y-92899500D01*
X155478842Y-92899500D01*
X155321158Y-92899500D01*
X155321155Y-92899500D01*
X155166510Y-92930261D01*
X155166498Y-92930264D01*
X155020827Y-92990602D01*
X155020814Y-92990609D01*
X154889711Y-93078210D01*
X154889707Y-93078213D01*
X154778213Y-93189707D01*
X154778210Y-93189711D01*
X154690609Y-93320814D01*
X154690602Y-93320827D01*
X154630264Y-93466498D01*
X154630261Y-93466510D01*
X154599500Y-93621153D01*
X154599500Y-93778846D01*
X154630261Y-93933489D01*
X154630264Y-93933501D01*
X154689694Y-94076979D01*
X154697163Y-94146448D01*
X154689694Y-94171883D01*
X154630330Y-94315202D01*
X154630327Y-94315214D01*
X154599566Y-94469857D01*
X154599566Y-94627550D01*
X154630326Y-94782192D01*
X154630328Y-94782197D01*
X154630329Y-94782201D01*
X154660096Y-94854066D01*
X154667563Y-94923535D01*
X154651803Y-94962582D01*
X154652794Y-94963112D01*
X154649918Y-94968493D01*
X154589578Y-95114166D01*
X154589575Y-95114178D01*
X154558814Y-95268821D01*
X125350500Y-95268821D01*
X125350500Y-89735928D01*
X125325502Y-89610261D01*
X125325501Y-89610260D01*
X125325501Y-89610256D01*
X125276465Y-89491873D01*
X125276464Y-89491872D01*
X125276461Y-89491866D01*
X125205277Y-89385332D01*
X125186443Y-89366498D01*
X125114669Y-89294724D01*
X124586443Y-88766498D01*
X122964674Y-87144727D01*
X122964673Y-87144726D01*
X122964669Y-87144723D01*
X122858127Y-87073535D01*
X122739744Y-87024499D01*
X122739738Y-87024497D01*
X122614071Y-86999500D01*
X122614069Y-86999500D01*
X116304935Y-86999500D01*
X116237896Y-86979815D01*
X116236090Y-86978633D01*
X116179179Y-86940606D01*
X116179172Y-86940602D01*
X116033501Y-86880264D01*
X116033489Y-86880261D01*
X115878845Y-86849500D01*
X115878842Y-86849500D01*
X115721158Y-86849500D01*
X115721155Y-86849500D01*
X115566510Y-86880261D01*
X115566498Y-86880264D01*
X115420827Y-86940602D01*
X115420814Y-86940609D01*
X115289711Y-87028210D01*
X115289707Y-87028213D01*
X115178213Y-87139707D01*
X115178210Y-87139711D01*
X115090609Y-87270814D01*
X115090602Y-87270827D01*
X115030264Y-87416498D01*
X115030261Y-87416510D01*
X114999500Y-87571153D01*
X114999500Y-87728846D01*
X115030261Y-87883489D01*
X115030264Y-87883501D01*
X115090602Y-88029172D01*
X115090609Y-88029185D01*
X115175752Y-88156609D01*
X115196630Y-88223286D01*
X115178146Y-88290666D01*
X115126167Y-88337357D01*
X115072650Y-88349500D01*
X113963701Y-88349500D01*
X113896662Y-88329815D01*
X113880380Y-88316694D01*
X113880379Y-88316696D01*
X113880218Y-88316564D01*
X113876020Y-88313181D01*
X113875672Y-88312833D01*
X113875668Y-88312830D01*
X113744565Y-88225229D01*
X113744552Y-88225222D01*
X113598881Y-88164884D01*
X113598869Y-88164881D01*
X113444225Y-88134120D01*
X113444222Y-88134120D01*
X113286538Y-88134120D01*
X113286535Y-88134120D01*
X113131890Y-88164881D01*
X113131878Y-88164884D01*
X112986207Y-88225222D01*
X112986194Y-88225229D01*
X112855091Y-88312830D01*
X112855087Y-88312833D01*
X112743593Y-88424327D01*
X112743590Y-88424331D01*
X112655989Y-88555434D01*
X112655982Y-88555447D01*
X112595644Y-88701118D01*
X112595641Y-88701130D01*
X112564880Y-88855773D01*
X105100500Y-88855773D01*
X105100500Y-71825316D01*
X105109939Y-71777864D01*
X105169735Y-71633501D01*
X105169737Y-71633497D01*
X105200500Y-71478842D01*
X105200500Y-71321158D01*
X105200500Y-71321155D01*
X105200499Y-71321153D01*
X105169738Y-71166510D01*
X105169737Y-71166503D01*
X105169735Y-71166498D01*
X105109397Y-71020827D01*
X105109390Y-71020814D01*
X105021789Y-70889711D01*
X105021786Y-70889707D01*
X104910292Y-70778213D01*
X104910288Y-70778210D01*
X104779185Y-70690609D01*
X104779172Y-70690602D01*
X104633501Y-70630264D01*
X104633489Y-70630261D01*
X104478845Y-70599500D01*
X104478842Y-70599500D01*
X104321158Y-70599500D01*
X104321155Y-70599500D01*
X104166510Y-70630261D01*
X104166498Y-70630264D01*
X104020827Y-70690602D01*
X104020814Y-70690609D01*
X103889711Y-70778210D01*
X103889707Y-70778213D01*
X103778213Y-70889707D01*
X103778210Y-70889711D01*
X103690609Y-71020814D01*
X103690602Y-71020827D01*
X103630264Y-71166498D01*
X103630261Y-71166510D01*
X103599500Y-71321153D01*
X99850500Y-71321153D01*
X99850500Y-66868592D01*
X194353500Y-66868592D01*
X194353500Y-67031407D01*
X194385259Y-67191073D01*
X194385262Y-67191082D01*
X194447562Y-67341490D01*
X194447563Y-67341492D01*
X194538015Y-67476862D01*
X194538018Y-67476866D01*
X194653133Y-67591981D01*
X194653137Y-67591984D01*
X194788505Y-67682435D01*
X194788506Y-67682435D01*
X194788507Y-67682436D01*
X194788509Y-67682437D01*
X194888781Y-67723970D01*
X194938919Y-67744738D01*
X194938921Y-67744738D01*
X194938926Y-67744740D01*
X195098592Y-67776499D01*
X195098595Y-67776500D01*
X195098597Y-67776500D01*
X195261405Y-67776500D01*
X195261406Y-67776499D01*
X195314629Y-67765912D01*
X195421073Y-67744740D01*
X195421076Y-67744738D01*
X195421081Y-67744738D01*
X195571495Y-67682435D01*
X195706863Y-67591984D01*
X195821984Y-67476863D01*
X195912435Y-67341495D01*
X195974738Y-67191081D01*
X196006500Y-67031403D01*
X196006500Y-66868597D01*
X196006500Y-66868594D01*
X196006499Y-66868592D01*
X195974740Y-66708926D01*
X195974737Y-66708917D01*
X195912437Y-66558509D01*
X195912436Y-66558507D01*
X195821984Y-66423137D01*
X195821981Y-66423133D01*
X195706866Y-66308018D01*
X195706862Y-66308015D01*
X195571492Y-66217563D01*
X195571490Y-66217562D01*
X195421082Y-66155262D01*
X195421073Y-66155259D01*
X195261406Y-66123500D01*
X195261403Y-66123500D01*
X195098597Y-66123500D01*
X195098594Y-66123500D01*
X194938926Y-66155259D01*
X194938917Y-66155262D01*
X194788509Y-66217562D01*
X194788507Y-66217563D01*
X194653137Y-66308015D01*
X194653133Y-66308018D01*
X194538018Y-66423133D01*
X194538015Y-66423137D01*
X194447563Y-66558507D01*
X194447562Y-66558509D01*
X194385262Y-66708917D01*
X194385259Y-66708926D01*
X194353500Y-66868592D01*
X99850500Y-66868592D01*
X99850500Y-63574500D01*
X99870185Y-63507461D01*
X99922989Y-63461706D01*
X99974500Y-63450500D01*
X166371966Y-63450500D01*
X166371969Y-63450500D01*
X166714250Y-63416789D01*
X167051578Y-63349690D01*
X167380705Y-63249850D01*
X167698462Y-63118231D01*
X168001787Y-62956100D01*
X168287760Y-62765019D01*
X168553627Y-62546827D01*
X168796827Y-62303627D01*
X169015019Y-62037760D01*
X169206100Y-61751787D01*
X169368231Y-61448462D01*
X169499850Y-61130705D01*
X169599690Y-60801578D01*
X169666789Y-60464250D01*
X169700500Y-60121969D01*
X169700500Y-59950000D01*
X169700500Y-59913811D01*
X172763812Y-59913811D01*
X172763812Y-60291536D01*
X172768956Y-60363474D01*
X172809494Y-60501528D01*
X172887279Y-60622564D01*
X172887283Y-60622568D01*
X172996012Y-60716783D01*
X172996018Y-60716788D01*
X173023203Y-60729203D01*
X173126892Y-60776557D01*
X173126895Y-60776557D01*
X173126896Y-60776558D01*
X173269312Y-60797034D01*
X173269315Y-60797034D01*
X174640369Y-60797034D01*
X174712309Y-60791889D01*
X174746399Y-60781878D01*
X174816266Y-60781877D01*
X174875045Y-60819649D01*
X174885082Y-60832940D01*
X174905082Y-60863495D01*
X174976815Y-60950851D01*
X174976821Y-60950857D01*
X174976823Y-60950859D01*
X175053198Y-61025980D01*
X175141740Y-61096262D01*
X175141749Y-61096268D01*
X175165913Y-61111575D01*
X175232327Y-61153646D01*
X175280040Y-61177190D01*
X175336170Y-61204888D01*
X175336172Y-61204888D01*
X175336177Y-61204891D01*
X175431044Y-61240387D01*
X175553195Y-61272579D01*
X175642256Y-61287703D01*
X175786652Y-61299096D01*
X175826413Y-61300662D01*
X175826414Y-61300662D01*
X176304884Y-61300662D01*
X176376824Y-61295517D01*
X176514876Y-61254981D01*
X176635916Y-61177193D01*
X176730138Y-61068456D01*
X176783843Y-60950859D01*
X176789907Y-60937581D01*
X176789908Y-60937577D01*
X176794824Y-60903387D01*
X176823849Y-60839831D01*
X176882627Y-60802057D01*
X176917562Y-60797034D01*
X177113084Y-60797034D01*
X177185024Y-60791889D01*
X177320130Y-60752217D01*
X177389996Y-60752217D01*
X177406570Y-60758399D01*
X177446331Y-60776558D01*
X177588747Y-60797034D01*
X177588750Y-60797034D01*
X178008478Y-60797034D01*
X178080418Y-60791889D01*
X178150557Y-60771294D01*
X178220426Y-60771294D01*
X178232866Y-60775933D01*
X178234982Y-60776553D01*
X178234991Y-60776558D01*
X178377407Y-60797034D01*
X178377410Y-60797034D01*
X178783094Y-60797034D01*
X178855034Y-60791889D01*
X178870403Y-60787375D01*
X178937551Y-60786611D01*
X178980416Y-60798143D01*
X178980421Y-60798143D01*
X178980436Y-60798148D01*
X179071564Y-60813903D01*
X179131080Y-60818650D01*
X179190571Y-60823396D01*
X179190572Y-60823396D01*
X179190597Y-60823398D01*
X179271180Y-60823383D01*
X179384824Y-60814274D01*
X179474887Y-60798768D01*
X179571510Y-60772959D01*
X179643083Y-60745863D01*
X179712749Y-60740538D01*
X179738493Y-60749036D01*
X179798756Y-60776558D01*
X179941172Y-60797034D01*
X179941175Y-60797034D01*
X180399968Y-60797034D01*
X180399982Y-60797034D01*
X180424450Y-60796442D01*
X180565707Y-60769096D01*
X180617224Y-60742482D01*
X180685820Y-60729203D01*
X180725647Y-60739857D01*
X180806006Y-60776556D01*
X180806011Y-60776557D01*
X180806013Y-60776558D01*
X180948429Y-60797034D01*
X180948432Y-60797034D01*
X181368161Y-60797034D01*
X181440101Y-60791889D01*
X181578153Y-60751353D01*
X181699193Y-60673565D01*
X181793415Y-60564828D01*
X181834703Y-60474418D01*
X181853184Y-60433953D01*
X181853185Y-60433948D01*
X181873661Y-60291534D01*
X181873661Y-58248931D01*
X181868516Y-58176991D01*
X181864734Y-58164112D01*
X181860090Y-58148296D01*
X181827980Y-58038939D01*
X181785249Y-57972449D01*
X181750193Y-57917900D01*
X181750189Y-57917896D01*
X181641460Y-57823681D01*
X181641458Y-57823679D01*
X181641455Y-57823677D01*
X181633533Y-57820059D01*
X181510580Y-57763907D01*
X181510575Y-57763906D01*
X181368161Y-57743431D01*
X180948429Y-57743431D01*
X180948426Y-57743431D01*
X180876487Y-57748576D01*
X180738438Y-57789111D01*
X180730375Y-57792794D01*
X180729408Y-57790677D01*
X180674500Y-57806793D01*
X180623003Y-57795587D01*
X180553636Y-57763907D01*
X180553631Y-57763906D01*
X180411217Y-57743431D01*
X179957903Y-57743431D01*
X179957900Y-57743431D01*
X179821995Y-57762044D01*
X179821991Y-57762045D01*
X179690322Y-57820059D01*
X179580335Y-57912815D01*
X179500938Y-58032799D01*
X179500935Y-58032803D01*
X179460571Y-58163762D01*
X179422013Y-58222029D01*
X179358074Y-58250200D01*
X179315865Y-58248436D01*
X179276923Y-58240015D01*
X179276915Y-58240014D01*
X179245024Y-58235555D01*
X179202843Y-58229658D01*
X179202837Y-58229657D01*
X179056568Y-58220157D01*
X179056559Y-58220157D01*
X179056477Y-58220157D01*
X178990900Y-58220166D01*
X178990875Y-58220167D01*
X178837202Y-58230195D01*
X178837192Y-58230195D01*
X178837188Y-58230196D01*
X178837187Y-58230196D01*
X178837175Y-58230197D01*
X178761960Y-58240826D01*
X178634199Y-58268808D01*
X178634193Y-58268810D01*
X178550115Y-58295083D01*
X178550106Y-58295086D01*
X178443966Y-58338731D01*
X178426580Y-58347947D01*
X178358128Y-58361951D01*
X178292971Y-58336724D01*
X178287303Y-58332098D01*
X178286023Y-58330989D01*
X178281772Y-58327305D01*
X178281768Y-58327303D01*
X178150897Y-58267535D01*
X178150892Y-58267534D01*
X178008478Y-58247059D01*
X177602791Y-58247059D01*
X177602788Y-58247059D01*
X177530851Y-58252203D01*
X177521948Y-58254818D01*
X177452078Y-58254816D01*
X177449557Y-58254047D01*
X177444895Y-58252569D01*
X177444876Y-58252564D01*
X177340079Y-58231222D01*
X177340075Y-58231221D01*
X177340072Y-58231221D01*
X177236584Y-58221369D01*
X177141073Y-58221340D01*
X177141066Y-58221341D01*
X177141065Y-58221341D01*
X177133793Y-58222029D01*
X177031961Y-58231662D01*
X176928294Y-58252583D01*
X176928287Y-58252585D01*
X176833792Y-58282222D01*
X176833778Y-58282227D01*
X176730147Y-58328038D01*
X176724040Y-58331604D01*
X176656221Y-58348406D01*
X176600307Y-58330681D01*
X176600167Y-58330989D01*
X176597643Y-58329836D01*
X176594478Y-58328833D01*
X176592101Y-58327305D01*
X176461225Y-58267535D01*
X176461220Y-58267534D01*
X176318806Y-58247059D01*
X176286330Y-58247059D01*
X176219291Y-58227374D01*
X176173536Y-58174570D01*
X176166783Y-58155991D01*
X176150793Y-58097945D01*
X176130613Y-58024688D01*
X176107809Y-57972449D01*
X176103722Y-57963333D01*
X176025576Y-57842524D01*
X176025564Y-57842510D01*
X175987893Y-57799294D01*
X175987889Y-57799290D01*
X175987887Y-57799288D01*
X175882071Y-57707487D01*
X175881890Y-57707330D01*
X175833048Y-57675655D01*
X175833042Y-57675652D01*
X175823876Y-57671250D01*
X175717051Y-57619948D01*
X175717039Y-57619944D01*
X175707284Y-57616710D01*
X183556575Y-57616710D01*
X183556575Y-61258646D01*
X183561719Y-61330584D01*
X183590413Y-61428304D01*
X183596334Y-61448469D01*
X183602257Y-61468638D01*
X183680042Y-61589674D01*
X183680046Y-61589678D01*
X183788775Y-61683893D01*
X183788781Y-61683898D01*
X183829249Y-61702379D01*
X183919655Y-61743667D01*
X183919658Y-61743667D01*
X183919659Y-61743668D01*
X184062075Y-61764144D01*
X184062078Y-61764144D01*
X201385497Y-61764144D01*
X201457437Y-61758999D01*
X201595489Y-61718463D01*
X201716529Y-61640675D01*
X201810751Y-61531938D01*
X201870521Y-61401060D01*
X201890997Y-61258644D01*
X201890997Y-57616711D01*
X201885852Y-57544771D01*
X201845316Y-57406719D01*
X201767528Y-57285679D01*
X201708670Y-57234678D01*
X201658796Y-57191461D01*
X201658794Y-57191459D01*
X201658791Y-57191457D01*
X201658535Y-57191340D01*
X201527916Y-57131687D01*
X201527911Y-57131686D01*
X201385497Y-57111211D01*
X184062075Y-57111211D01*
X184062072Y-57111211D01*
X183990134Y-57116355D01*
X183852080Y-57156893D01*
X183731044Y-57234678D01*
X183731040Y-57234682D01*
X183636825Y-57343411D01*
X183636819Y-57343420D01*
X183577051Y-57474291D01*
X183577050Y-57474296D01*
X183556575Y-57616710D01*
X175707284Y-57616710D01*
X175656950Y-57600024D01*
X175546199Y-57576661D01*
X175546195Y-57576660D01*
X175471831Y-57569521D01*
X175375245Y-57569521D01*
X175375244Y-57569521D01*
X175375240Y-57569521D01*
X175300805Y-57576665D01*
X175189993Y-57600045D01*
X175189984Y-57600048D01*
X175129900Y-57619971D01*
X175013712Y-57675816D01*
X174964947Y-57707481D01*
X174964945Y-57707482D01*
X174964943Y-57707484D01*
X174859190Y-57799281D01*
X174859175Y-57799294D01*
X174859171Y-57799297D01*
X174821489Y-57842526D01*
X174815005Y-57850117D01*
X174815003Y-57850118D01*
X174787522Y-57894501D01*
X174735493Y-57941135D01*
X174666511Y-57952238D01*
X174602478Y-57924283D01*
X174577981Y-57896569D01*
X174543026Y-57842529D01*
X174505338Y-57799293D01*
X174399339Y-57707333D01*
X174399336Y-57707330D01*
X174350494Y-57675655D01*
X174350488Y-57675652D01*
X174341322Y-57671250D01*
X174234497Y-57619948D01*
X174234485Y-57619944D01*
X174174396Y-57600024D01*
X174063645Y-57576661D01*
X174063641Y-57576660D01*
X173989277Y-57569521D01*
X173892691Y-57569521D01*
X173892690Y-57569521D01*
X173892686Y-57569521D01*
X173818251Y-57576665D01*
X173707439Y-57600045D01*
X173707430Y-57600048D01*
X173647346Y-57619971D01*
X173531158Y-57675816D01*
X173482384Y-57707487D01*
X173376634Y-57799281D01*
X173376623Y-57799291D01*
X173338950Y-57842510D01*
X173338938Y-57842524D01*
X173332454Y-57850113D01*
X173332445Y-57850123D01*
X173332443Y-57850126D01*
X173256706Y-57972446D01*
X173256705Y-57972449D01*
X173233901Y-58024688D01*
X173233899Y-58024693D01*
X173233898Y-58024692D01*
X173233616Y-58025339D01*
X173195600Y-58164110D01*
X173195600Y-58164112D01*
X173187584Y-58228116D01*
X173187584Y-58353760D01*
X173195593Y-58417707D01*
X173195691Y-58418485D01*
X173195692Y-58418488D01*
X173228410Y-58537260D01*
X173227842Y-58605122D01*
X173226367Y-58610143D01*
X173205892Y-58752558D01*
X173205892Y-59318130D01*
X173186207Y-59385169D01*
X173133403Y-59430924D01*
X173116827Y-59437107D01*
X173059320Y-59453993D01*
X173059318Y-59453994D01*
X173059317Y-59453994D01*
X172938281Y-59531779D01*
X172938277Y-59531783D01*
X172844062Y-59640512D01*
X172844056Y-59640521D01*
X172784288Y-59771392D01*
X172784287Y-59771397D01*
X172763812Y-59913811D01*
X169700500Y-59913811D01*
X169700500Y-59884108D01*
X169700500Y-57503750D01*
X169700726Y-57496263D01*
X169713464Y-57285676D01*
X169718271Y-57206201D01*
X169720076Y-57191340D01*
X169733818Y-57116356D01*
X169771780Y-56909198D01*
X169775364Y-56894664D01*
X169860699Y-56620812D01*
X169865997Y-56606842D01*
X169983727Y-56345258D01*
X169990680Y-56332012D01*
X170030959Y-56265381D01*
X170139075Y-56086534D01*
X170147567Y-56074230D01*
X170324481Y-55848417D01*
X170334396Y-55837226D01*
X170537226Y-55634396D01*
X170548417Y-55624481D01*
X170774230Y-55447567D01*
X170786534Y-55439075D01*
X171032012Y-55290680D01*
X171045258Y-55283727D01*
X171306842Y-55165997D01*
X171320812Y-55160699D01*
X171594668Y-55075362D01*
X171609198Y-55071780D01*
X171891344Y-55020075D01*
X171906201Y-55018271D01*
X172196264Y-55000726D01*
X172203751Y-55000500D01*
X172265892Y-55000500D01*
X201614108Y-55000500D01*
X201676249Y-55000500D01*
X201683736Y-55000726D01*
G37*
%TD.AperFunction*%
%TD*%
M02*
